<?xml version="1.0" encoding="UTF-8" standalone="no"?>
<!DOCTYPE svg PUBLIC "-//W3C//DTD SVG 1.1//EN" "http://www.w3.org/Graphics/SVG/1.1/DTD/svg11.dtd">
<svg width="100%" height="100%" viewBox="0 0 927 907" version="1.1" xmlns="http://www.w3.org/2000/svg" xmlns:xlink="http://www.w3.org/1999/xlink" xml:space="preserve" xmlns:serif="http://www.serif.com/" style="fill-rule:evenodd;clip-rule:evenodd;stroke-linecap:round;stroke-linejoin:round;stroke-miterlimit:1.5;">
    <g transform="matrix(1,0,0,1,-782.649,-1305.7)">
        <g id="lapka">
            <path d="M894.85,2108.98C872.039,1972.65 1014.78,1732.35 1243.23,1732.35C1430.13,1732.36 1598.54,1924.8 1583.76,2087.01C1571.64,2220.03 1455.8,2248.84 1252.64,2160.76C1055.55,2236.06 937.113,2217.81 894.85,2108.98Z" style="fill:#37274f;stroke:#000;stroke-width:1px;"/>
            <g transform="matrix(1.22045,-0.247295,0.214148,1.05687,-558.904,116.565)">
                <ellipse cx="889.358" cy="1673.51" rx="79.248" ry="154.573" style="fill:#251c33;"/>
            </g>
            <g transform="matrix(1.24332,-0.0693807,0.060081,1.07667,-103.28,-266.256)">
                <ellipse cx="889.358" cy="1673.51" rx="79.248" ry="154.573" style="fill:#251c33;"/>
            </g>
            <g transform="matrix(1.24413,0.0528866,-0.0457977,1.07737,341.533,-377.74)">
                <ellipse cx="889.358" cy="1673.51" rx="79.248" ry="154.573" style="fill:#251c33;"/>
            </g>
            <g transform="matrix(1.19985,0.333208,-0.288545,1.03902,1019.41,-374.556)">
                <ellipse cx="889.358" cy="1673.51" rx="79.248" ry="154.573" style="fill:#251c33;"/>
            </g>
        </g>
    </g>
</svg>
